<svg width="468" height="213" viewBox="0 0 468 213" fill="none" xmlns="http://www.w3.org/2000/svg">
<g clip-path="url(#clip0_302:20)">
<path d="M459.231 8.77905H8.76889V204.221H459.231V8.77905Z" fill="#E3E3E3"/>
<path d="M468 0H0V213H468V0ZM450.462 195.377H17.5378V17.5454H450.462V195.377Z" fill="#E3E3E3"/>
<path d="M72.7575 79.385H131.482V18.0596H186.15V195.442H131.482V128.551H72.7575V195.442H18.077V18.0596H72.7575V79.385Z" fill="#102D69"/>
<path d="M225.783 137.664C238.442 151.096 254.902 154.901 263.247 154.901C271.862 154.901 278.653 150.081 278.653 141.713C278.653 123.216 204.997 137.407 204.997 67.9837C204.997 40.1038 226.759 14.2549 269.037 14.2549C294.599 14.2549 309.274 22.3656 329.777 39.8468L302.187 71.5313C289.541 60.8755 281.439 56.3253 268.806 56.3253C260.962 56.3253 256.66 58.3433 256.66 66.197C256.66 85.4777 330.561 73.3051 330.561 141.713C330.561 171.11 312.342 199.246 263.234 199.246C240.201 199.246 218.94 191.393 198.193 169.336L225.783 137.664Z" fill="#102D69"/>
<path d="M450.462 195.442H344.401V18.0596H450.462V65.7085H399.081V83.4468H447.175V128.551H399.081V147.806H450.462V195.442Z" fill="#102D69"/>
</g>
<defs>
<clipPath id="clip0_302:20">
<rect width="468" height="213" fill="white"/>
</clipPath>
</defs>
</svg>
