<svg xmlns="http://www.w3.org/2000/svg" xmlns:xlink="http://www.w3.org/1999/xlink" height="1132.48" viewBox="0 0 1446.249 849.36" width="1928.332" xmlns:v="https://vecta.io/nano"><style><![CDATA[.B{clip-path:url(#g)}.C{fill:none}.D{stroke:#fff}.E{stroke-linecap:round}.F{fill:#262626}.G{stroke-width:3}]]></style><g fill="#edf9fe"><path d="M0 849.36h1446.249V0H0z"/><path d="M44.049 822.6h1395V7.2h-1395z"/></g><path d="M113.695 822.6V7.2" class="B C D E"/><g transform="matrix(.11 0 0 -.11 99.77924 839.973594)" class="F"><defs><path d="M52.828 31.203H5.563v8.203h47.266z" id="A"/><path d="M4.156 35.297q0 12.703 2.609 20.438 2.609 7.75 7.75 11.938 5.156 4.203 12.969 4.203 5.766 0 10.109-2.328 4.344-2.312 7.172-6.687 2.844-4.359 4.453-10.641 1.609-6.266 1.609-16.922 0-12.594-2.594-20.328Q45.656 7.234 40.5 3q-5.141-4.219-13.016-4.219-10.344 0-16.25 7.422-7.078 8.938-7.078 29.094zm9.031 0q0-17.625 4.125-23.469Q21.438 6 27.484 6q6.063 0 10.188 5.859 4.125 5.859 4.125 23.438 0 17.688-4.125 23.484-4.125 5.813-10.281 5.813-6.047 0-9.672-5.125-4.531-6.531-4.531-24.172z" id="B"/><path d="M9.078 0v10.016h10.016V0z" id="C"/><path d="M50.344 8.453V0H3.031q-.094 3.172 1.016 6.109 1.813 4.828 5.781 9.516 3.984 4.688 11.516 10.844 11.672 9.563 15.766 15.156 4.109 5.594 4.109 10.578 0 5.219-3.75 8.797-3.734 3.594-9.734 3.594-6.344 0-10.156-3.812-3.812-3.797-3.859-10.531l-9.031.922q.922 10.109 6.969 15.406 6.063 5.297 16.281 5.297 10.297 0 16.297-5.719Q50.25 60.453 50.25 52q0-4.297-1.766-8.453-1.75-4.141-5.828-8.734-4.078-4.594-13.547-12.594-7.922-6.641-10.172-9.016-2.234-2.359-3.703-4.75z" id="D"/></defs><use xlink:href="#A"/><use x="58.398" xlink:href="#B"/><use x="114.014" xlink:href="#C"/><use x="141.797" xlink:href="#D"/><use x="197.412" xlink:href="#B"/></g><path d="M276.871 822.6V7.2" class="B C D E"/><g transform="matrix(.11 0 0 -.11 262.955355 839.973594)" class="F"><defs><path d="M37.25 0h-8.781v56q-3.172-3.016-8.328-6.047-5.156-3.031-9.25-4.547v8.5q7.375 3.469 12.891 8.391 5.516 4.938 7.813 9.578h5.656z" id="E"/><path d="M4.156 18.75l9.219.781q1.031-6.734 4.766-10.141Q21.875 6 27.156 6q6.344 0 10.734 4.781 4.391 4.797 4.391 12.703 0 7.516-4.219 11.859Q33.844 39.703 27 39.703q-4.25 0-7.672-1.937-3.406-1.922-5.359-5l-8.25 1.078 6.922 36.766H48.25v-8.406H19.672l-3.844-19.234q6.438 4.5 13.516 4.5 9.375 0 15.813-6.5 6.453-6.5 6.453-16.703 0-9.719-5.656-16.797-6.891-8.687-18.797-8.687-9.766 0-15.953 5.469-6.172 5.469-7.047 14.5z" id="F"/></defs><use xlink:href="#A"/><use x="58.398" xlink:href="#B"/><use x="114.014" xlink:href="#C"/><use x="141.797" xlink:href="#E"/><use x="197.412" xlink:href="#F"/></g><path d="M440.047 822.6V7.2" class="B C D E"/><g transform="matrix(.11 0 0 -.11 426.13147 839.973594)" class="F"><use xlink:href="#A"/><use x="58.398" xlink:href="#B"/><use x="114.014" xlink:href="#C"/><use x="141.797" xlink:href="#E"/><use x="197.412" xlink:href="#B"/></g><path d="M603.223 822.6V7.2" class="B C D E"/><g transform="matrix(.11 0 0 -.11 589.307585 839.973594)" class="F"><use xlink:href="#A"/><use x="58.398" xlink:href="#B"/><use x="114.014" xlink:href="#C"/><use x="141.797" xlink:href="#B"/><use x="197.412" xlink:href="#F"/></g><path d="M766.4 822.6V7.2" class="B C D E"/><g transform="matrix(.11 0 0 -.11 755.696043 839.973594)" class="F"><use xlink:href="#B"/><use x="55.615" xlink:href="#C"/><use x="83.398" xlink:href="#B"/><use x="139.014" xlink:href="#B"/></g><path d="M929.576 822.6V7.2" class="B C D E"/><g transform="matrix(.11 0 0 -.11 918.872158 839.973594)" class="F"><use xlink:href="#B"/><use x="55.615" xlink:href="#C"/><use x="83.398" xlink:href="#B"/><use x="139.014" xlink:href="#F"/></g><path d="M1092.752 822.6V7.2" class="B C D E"/><g transform="matrix(.11 0 0 -.11 1082.048273 839.973594)" class="F"><use xlink:href="#B"/><use x="55.615" xlink:href="#C"/><use x="83.398" xlink:href="#E"/><use x="139.014" xlink:href="#B"/></g><path d="M1255.928 822.6V7.2" class="B C D E"/><g transform="matrix(.11 0 0 -.11 1245.224388 839.973594)" class="F"><use xlink:href="#B"/><use x="55.615" xlink:href="#C"/><use x="83.398" xlink:href="#E"/><use x="139.014" xlink:href="#F"/></g><path d="M1419.104 822.6V7.2" class="B C D E"/><g transform="matrix(.11 0 0 -.11 1408.400502 839.973594)" class="F"><use xlink:href="#B"/><use x="55.615" xlink:href="#C"/><use x="83.398" xlink:href="#D"/><use x="139.014" xlink:href="#B"/></g><path d="M44.049 822.6h1395" class="B C D E"/><use xlink:href="#B" transform="matrix(.11 0 0 -.11 28.432031 826.536797)" class="F"/><path d="M44.049 702.301h1395" class="B C D E"/><g transform="matrix(.11 0 0 -.11 22.315 706.238258)" class="F"><use xlink:href="#E"/><use x="55.615" xlink:href="#B"/></g><path d="M44.049 582.003h1395" class="B C D E"/><g transform="matrix(.11 0 0 -.11 22.315 585.939719)" class="F"><use xlink:href="#D"/><use x="55.615" xlink:href="#B"/></g><path d="M44.049 461.704h1395" class="B C D E"/><g transform="matrix(.11 0 0 -.11 22.315 465.64118)" class="F"><defs><path d="M4.203 18.891l8.781 1.172q1.516-7.469 5.156-10.766Q21.781 6 27 6q6.203 0 10.469 4.297 4.281 4.297 4.281 10.656 0 6.047-3.953 9.969-3.953 3.938-10.062 3.938-2.484 0-6.203-.969l.984 7.719q.875-.109 1.406-.109 5.625 0 10.109 2.922 4.5 2.938 4.5 9.047 0 4.828-3.281 8-3.266 3.188-8.437 3.188-5.125 0-8.547-3.234-3.422-3.219-4.391-9.656l-8.797 1.563q1.609 8.828 7.313 13.688 5.719 4.859 14.219 4.859 5.859 0 10.781-2.516 4.938-2.516 7.547-6.859 2.625-4.344 2.625-9.234 0-4.625-2.5-8.437-2.484-3.812-7.359-6.062 6.344-1.453 9.859-6.078 3.516-4.609 3.516-11.547 0-9.375-6.844-15.891-6.828-6.516-17.281-6.516-9.422 0-15.656 5.609-6.219 5.625-7.094 14.547z" id="G"/></defs><use xlink:href="#G"/><use x="55.615" xlink:href="#B"/></g><path d="M44.049 341.406h1395" class="B C D E"/><g transform="matrix(.11 0 0 -.11 22.315 345.342642)" class="F"><defs><path d="M32.328 0v17.141H1.266v8.063l32.672 46.375h7.172V25.203h9.672v-8.062h-9.672V0zm0 25.203v32.266L9.906 25.203z" id="H"/></defs><use xlink:href="#H"/><use x="55.615" xlink:href="#B"/></g><path d="M44.049 221.107h1395" class="B C D E"/><g transform="matrix(.11 0 0 -.11 22.315 225.044103)" class="F"><use xlink:href="#F"/><use x="55.615" xlink:href="#B"/></g><path d="M44.049 100.809h1395" class="B C D E"/><g class="F"><g transform="matrix(.11 0 0 -.11 22.315 104.745564)"><defs><path d="M49.75 54.047l-8.734-.672q-1.172 5.172-3.312 7.516-3.578 3.766-8.797 3.766-4.203 0-7.375-2.344-4.141-3.031-6.547-8.844-2.391-5.812-2.484-16.547 3.172 4.828 7.766 7.172 4.594 2.344 9.625 2.344 8.781 0 14.953-6.469 6.188-6.469 6.188-16.719 0-6.75-2.906-12.531-2.906-5.781-7.984-8.859-5.078-3.078-11.531-3.078-10.984 0-17.922 8.078Q3.766 14.938 3.766 33.5q0 20.75 7.656 30.172 6.688 8.203 18.016 8.203 8.453 0 13.844-4.734 5.406-4.734 6.469-13.094zM13.875 23.188q0-4.531 1.922-8.687 1.922-4.141 5.391-6.328Q24.656 6 28.469 6q5.563 0 9.563 4.484 4.016 4.5 4.016 12.219 0 7.422-3.969 11.688-3.953 4.281-9.953 4.281-5.953 0-10.109-4.281-4.141-4.266-4.141-11.203z" id="I"/></defs><use xlink:href="#I"/><use x="55.615" xlink:href="#B"/></g><g transform="matrix(0 -.12 -.12 0 15.789375 434.90625)"><defs><path d="M7.719 0v71.578h24.656q8.344 0 12.75-1.016 6.141-1.422 10.484-5.125 5.672-4.797 8.469-12.25 2.813-7.437 2.813-17 0-8.156-1.906-14.453-1.891-6.297-4.875-10.437-2.984-4.125-6.531-6.5-3.531-2.359-8.531-3.578Q40.047 0 33.547 0zm9.469 8.453h15.281q7.078 0 11.109 1.313 4.031 1.313 6.422 3.719 3.375 3.359 5.25 9.047 1.875 5.688 1.875 13.797 0 11.234-3.687 17.266-3.687 6.031-8.953 8.078-3.812 1.469-12.25 1.469H17.188z" id="J"/><path d="M42.094 16.703l9.078-1.125q-2.141-7.953-7.953-12.359-5.812-4.391-14.844-4.391-11.375 0-18.047 7-6.672 7.016-6.672 19.656 0 13.094 6.734 20.313 6.75 7.234 17.484 7.234 10.406 0 17-7.078 6.594-7.078 6.594-19.922 0-.781-.047-2.344H12.75q.484-8.547 4.828-13.094 4.344-4.531 10.844-4.531 4.828 0 8.25 2.531 3.422 2.547 5.422 8.109zM13.234 30.906h28.953q-.578 6.547-3.312 9.813-4.203 5.078-10.891 5.078-6.062 0-10.187-4.047-4.125-4.047-4.562-10.844z" id="K"/><path d="M6.594 0v51.859H14.5v-7.375q5.719 8.547 16.5 8.547 4.688 0 8.625-1.687 3.938-1.687 5.891-4.422 1.953-2.734 2.734-6.484.484-2.453.484-8.547V0h-8.797v31.547q0 5.375-1.031 8.031-1.016 2.656-3.625 4.234-2.609 1.594-6.125 1.594-5.625 0-9.703-3.562-4.078-3.562-4.078-13.516V0z" id="L"/><path d="M3.078 15.484l8.688 1.359q.734-5.219 4.078-8 3.344-2.781 9.359-2.781 6.047 0 8.969 2.453 2.938 2.469 2.938 5.797 0 2.969-2.594 4.688-1.797 1.172-8.984 2.969-9.656 2.453-13.391 4.234-3.734 1.781-5.672 4.922-1.922 3.156-1.922 6.969 0 3.453 1.578 6.406 1.594 2.969 4.328 4.922 2.047 1.5 5.578 2.547 3.547 1.063 7.609 1.063 6.094 0 10.703-1.766 4.625-1.75 6.813-4.766 2.203-3 3.031-8.016l-8.594-1.172q-.578 4-3.391 6.234-2.812 2.25-7.937 2.25-6.047 0-8.641-2-2.594-2-2.594-4.687 0-1.703 1.078-3.078 1.078-1.406 3.375-2.344 1.313-.484 7.766-2.234 9.328-2.5 13-4.094 3.688-1.578 5.781-4.609 2.109-3.016 2.109-7.516 0-4.391-2.562-8.281-2.562-3.875-7.406-6-4.828-2.125-10.922-2.125-10.109 0-15.406 4.203-5.297 4.203-6.766 12.453z" id="M"/><path d="M6.641 61.469v10.109h8.797V61.469zM6.641 0v51.859h8.797V0z" id="N"/><path d="M25.781 7.859L27.047.094q-3.703-.781-6.641-.781-4.781 0-7.422 1.516-2.625 1.516-3.703 3.984-1.078 2.469-1.078 10.375v29.828H1.766v6.844h6.438v12.844l8.734 5.266V51.859h8.844v-6.844h-8.844V14.703q0-3.766.469-4.844.469-1.062 1.516-1.703 1.047-.641 3-.641 1.469 0 3.859.344z" id="O"/><path d="M6.203-19.969l-.984 8.25q2.891-.781 5.031-.781 2.938 0 4.688.984 1.766.969 2.891 2.719.828 1.328 2.688 6.547.234.734.781 2.156L1.609 51.859h9.469l10.797-30.031q2.094-5.719 3.766-12.016 1.516 6.063 3.609 11.813l11.078 30.234h8.797L29.391-.875q-3.172-8.547-4.922-11.766-2.344-4.359-5.375-6.375-3.031-2.031-7.234-2.031-2.531 0-5.656 1.078z" id="P"/></defs><use xlink:href="#J"/><use x="72.217" xlink:href="#K"/><use x="127.832" xlink:href="#L"/><use x="183.447" xlink:href="#M"/><use x="233.447" xlink:href="#N"/><use x="255.664" xlink:href="#O"/><use x="283.447" xlink:href="#P"/></g></g><g fill="#00f" class="D"><path d="M349.804 822.6h2.581v-3.421h-2.581z" class="B"/><path d="M352.384 822.6h2.581 0-2.581z" class="B"/><path d="M354.965 822.6h2.581 0-2.581z" class="B"/><path d="M357.546 822.6h2.581 0-2.581z" class="B"/><path d="M360.126 822.6h2.581 0-2.581z" class="B"/><path d="M362.707 822.6h2.581 0-2.581z" class="B"/><path d="M365.287 822.6h2.581 0-2.581z" class="B"/><path d="M367.868 822.6h2.581 0-2.581z" class="B"/><path d="M370.449 822.6h2.581 0-2.581z" class="B"/><path d="M373.029 822.6h2.581 0-2.581z" class="B"/><path d="M375.61 822.6h2.581 0-2.581z" class="B"/><path d="M378.191 822.6h2.581 0-2.581z" class="B"/><path d="M380.771 822.6h2.581 0-2.581z" class="B"/><path d="M383.352 822.6h2.581 0-2.581z" class="B"/><path d="M385.932 822.6h2.581 0-2.581z" class="B"/><path d="M388.513 822.6h2.581 0-2.581z" class="B"/><path d="M391.094 822.6h2.581 0-2.581z" class="B"/><path d="M393.674 822.6h2.581 0-2.581z" class="B"/><path d="M396.255 822.6h2.581 0-2.581z" class="B"/><path d="M398.836 822.6h2.581 0-2.581z" class="B"/><path d="M401.416 822.6h2.581 0-2.581z" class="B"/><path d="M403.997 822.6h2.581 0-2.581z" class="B"/><path d="M406.577 822.6h2.581 0-2.581z" class="B"/><path d="M409.158 822.6h2.581 0-2.581z" class="B"/><path d="M411.739 822.6h2.581 0-2.581z" class="B"/><path d="M414.319 822.6h2.581 0-2.581z" class="B"/><path d="M416.9 822.6h2.581 0-2.581z" class="B"/><path d="M419.481 822.6h2.581 0-2.581z" class="B"/><path d="M422.061 822.6h2.581 0-2.581z" class="B"/><path d="M424.642 822.6h2.581 0-2.581z" class="B"/><path d="M427.222 822.6h2.581 0-2.581z" class="B"/><path d="M429.803 822.6h2.581 0-2.581z" class="B"/><path d="M432.384 822.6h2.581 0-2.581z" class="B"/><path d="M434.964 822.6h2.581 0-2.581z" class="B"/><path d="M437.545 822.6h2.581 0-2.581z" class="B"/><path d="M440.126 822.6h2.581v-3.421h-2.581z" class="B"/><path d="M442.706 822.6h2.581 0-2.581z" class="B"/><path d="M445.287 822.6h2.581 0-2.581z" class="B"/><path d="M447.867 822.6h2.581 0-2.581z" class="B"/><path d="M450.448 822.6h2.581 0-2.581z" class="B"/><path d="M453.029 822.6h2.581 0-2.581z" class="B"/><path d="M455.609 822.6h2.581v-3.421h-2.581z" class="B"/><path d="M458.19 822.6h2.581 0-2.581z" class="B"/><path d="M460.77 822.6h2.581v-3.421h-2.581z" class="B"/><path d="M463.351 822.6h2.581v-3.421h-2.581z" class="B"/><path d="M465.932 822.6h2.581 0-2.581z" class="B"/><path d="M468.512 822.6h2.581 0-2.581z" class="B"/><path d="M471.093 822.6h2.581 0-2.581z" class="B"/><path d="M473.674 822.6h2.581 0-2.581z" class="B"/><path d="M476.254 822.6h2.581 0-2.581z" class="B"/><path d="M478.835 822.6h2.581 0-2.581z" class="B"/><path d="M481.415 822.6h2.581 0-2.581z" class="B"/><path d="M483.996 822.6h2.581 0-2.581z" class="B"/><path d="M486.577 822.6h2.581 0-2.581z" class="B"/><path d="M489.157 822.6h2.581 0-2.581z" class="B"/><path d="M491.738 822.6h2.581 0-2.581z" class="B"/><path d="M494.319 822.6h2.581 0-2.581z" class="B"/><path d="M496.899 822.6h2.581 0-2.581z" class="B"/><path d="M499.48 822.6h2.581 0-2.581z" class="B"/><path d="M502.06 822.6h2.581 0-2.581z" class="B"/><path d="M504.641 822.6h2.581 0-2.581z" class="B"/><path d="M507.222 822.6h2.581v-6.842h-2.581z" class="B"/><path d="M509.802 822.6h2.581 0-2.581z" class="B"/><path d="M512.383 822.6h2.581 0-2.581z" class="B"/><path d="M514.964 822.6h2.581 0-2.581z" class="B"/><path d="M517.544 822.6h2.581 0-2.581z" class="B"/><path d="M520.125 822.6h2.581 0-2.581z" class="B"/><path d="M522.705 822.6h2.581 0-2.581z" class="B"/><path d="M525.286 822.6h2.581 0-2.581z" class="B"/><path d="M527.867 822.6h2.581 0-2.581z" class="B"/><path d="M530.447 822.6h2.581 0-2.581z" class="B"/><path d="M533.028 822.6h2.581 0-2.581z" class="B"/><path d="M535.608 822.6h2.581 0-2.581z" class="B"/><path d="M538.189 822.6h2.581v-3.421h-2.581z" class="B"/><path d="M540.77 822.6h2.581v-3.421h-2.581z" class="B"/><path d="M543.35 822.6h2.581 0-2.581z" class="B"/><path d="M545.931 822.6h2.581 0-2.581z" class="B"/><path d="M548.512 822.6h2.581 0-2.581z" class="B"/><path d="M551.092 822.6h2.581 0-2.581z" class="B"/><path d="M553.673 822.6h2.581 0-2.581z" class="B"/><path d="M556.253 822.6h2.581 0-2.581z" class="B"/><path d="M558.834 822.6h2.581v-6.842h-2.581z" class="B"/><path d="M561.415 822.6h2.581 0-2.581z" class="B"/><path d="M563.995 822.6h2.581 0-2.581z" class="B"/><path d="M566.576 822.6h2.581v-3.421h-2.581z" class="B"/><path d="M569.157 822.6h2.581 0-2.581z" class="B"/><path d="M571.737 822.6h2.581v-3.421h-2.581z" class="B"/><path d="M574.318 822.6h2.581 0-2.581z" class="B"/><path d="M576.898 822.6h2.581 0-2.581z" class="B"/><path d="M579.479 822.6h2.581 0-2.581z" class="B"/><path d="M582.06 822.6h2.581 0-2.581z" class="B"/><path d="M584.64 822.6h2.581 0-2.581z" class="B"/><path d="M587.221 822.6h2.581v-6.842h-2.581z" class="B"/><path d="M589.802 822.6h2.581 0-2.581z" class="B"/><path d="M592.382 822.6h2.581v-6.842h-2.581z" class="B"/><path d="M594.963 822.6h2.581 0-2.581z" class="B"/><path d="M597.543 822.6h2.581v-3.421h-2.581z" class="B"/><path d="M600.124 822.6h2.581v-3.421h-2.581z" class="B"/><path d="M602.705 822.6h2.581v-3.421h-2.581z" class="B"/><path d="M605.285 822.6h2.581v-3.421h-2.581z" class="B"/><path d="M607.866 822.6h2.581v-6.842h-2.581z" class="B"/><path d="M610.447 822.6h2.581v-3.421h-2.581z" class="B"/><path d="M613.027 822.6h2.581v-3.421h-2.581z" class="B"/><path d="M615.608 822.6h2.581v-3.421h-2.581z" class="B"/><path d="M618.188 822.6h2.581v-10.263h-2.581z" class="B"/><path d="M620.769 822.6h2.581v-3.421h-2.581z" class="B"/><path d="M623.35 822.6h2.581v-6.842h-2.581z" class="B"/><path d="M625.93 822.6h2.581v-3.421h-2.581z" class="B"/><path d="M628.511 822.6h2.581v-3.421h-2.581z" class="B"/><path d="M631.091 822.6h2.581v-6.842h-2.581z" class="B"/><path d="M633.672 822.6h2.581v-3.421h-2.581z" class="B"/><path d="M636.253 822.6h2.581v-10.263h-2.581z" class="B"/><path d="M638.833 822.6h2.581v-3.421h-2.581z" class="B"/><path d="M641.414 822.6h2.581v-3.421h-2.581z" class="B"/><path d="M643.995 822.6h2.581v-6.842h-2.581z" class="B"/><path d="M646.575 822.6h2.581v-10.263h-2.581z" class="B"/><path d="M649.156 822.6h2.581v-13.684h-2.581z" class="B"/><path d="M651.736 822.6h2.581v-13.684h-2.581z" class="B"/><path d="M654.317 822.6h2.581v-17.105h-2.581z" class="B"/><path d="M656.898 822.6h2.581v-13.684h-2.581z" class="B"/><path d="M659.478 822.6h2.581v-17.105h-2.581z" class="B"/><path d="M662.059 822.6h2.581v-17.105h-2.581z" class="B"/><path d="M664.64 822.6h2.581v-13.684h-2.581z" class="B"/><path d="M667.22 822.6h2.581v-37.631h-2.581z" class="B"/><path d="M669.801 822.6h2.581v-20.526h-2.581z" class="B"/><path d="M672.381 822.6h2.581v-27.368h-2.581z" class="B"/><path d="M674.962 822.6h2.581v-10.263h-2.581z" class="B"/><path d="M677.543 822.6h2.581v-10.263h-2.581z" class="B"/><path d="M680.123 822.6h2.581v-27.368h-2.581z" class="B"/><path d="M682.704 822.6h2.581v-37.631h-2.581z" class="B"/><path d="M685.285 822.6h2.581v-34.21h-2.581z" class="B"/><path d="M687.865 822.6h2.581v-41.052h-2.581z" class="B"/><path d="M690.446 822.6h2.581v-30.789h-2.581z" class="B"/><path d="M693.026 822.6h2.581v-30.789h-2.581z" class="B"/><path d="M695.607 822.6h2.581v-51.315h-2.581z" class="B"/><path d="M698.188 822.6h2.581v-51.315h-2.581z" class="B"/><path d="M700.768 822.6h2.581v-37.631h-2.581z" class="B"/><path d="M703.349 822.6h2.581v-58.157h-2.581z" class="B"/><path d="M705.929 822.6h2.581v-71.841h-2.581z" class="B"/><path d="M708.51 822.6h2.581v-58.157h-2.581z" class="B"/><path d="M711.091 822.6h2.581v-78.683h-2.581z" class="B"/><path d="M713.671 822.6h2.581v-88.947h-2.581z" class="B"/><path d="M716.252 822.6h2.581v-68.42h-2.581z" class="B"/><path d="M718.833 822.6h2.581V716.548h-2.581z" class="B"/><path d="M721.413 822.6h2.581v-99.21h-2.581z" class="B"/><path d="M723.994 822.6h2.581V689.18h-2.581z" class="B"/><path d="M726.574 822.6h2.581V682.338h-2.581z" class="B"/><path d="M729.155 822.6h2.581V685.759h-2.581z" class="B"/><path d="M731.736 822.6h2.581V675.496h-2.581z" class="B"/><path d="M734.316 822.6h2.581V648.128h-2.581z" class="B"/><path d="M736.897 822.6h2.581V596.813h-2.581z" class="B"/><path d="M739.478 822.6h2.581V572.866h-2.581z" class="B"/><path d="M742.058 822.6h2.581V572.866h-2.581z" class="B"/><path d="M744.639 822.6h2.581V535.234h-2.581z" class="B"/><path d="M747.219 822.6h2.581V521.55h-2.581z" class="B"/><path d="M749.8 822.6h2.581V507.866H749.8z" class="B"/><path d="M752.381 822.6h2.581V391.552h-2.581z" class="B"/><path d="M754.961 822.6h2.581V302.605h-2.581z" class="B"/><path d="M757.542 822.6h2.581V340.236h-2.581z" class="B"/><path d="M760.123 822.6h2.581V107.607h-2.581z" class="B"/><path d="M762.703 822.6h2.581V59.713h-2.581z" class="B"/><path d="M765.284 822.6h2.581V73.397h-2.581z" class="B"/><path d="M767.864 822.6h2.581V46.029h-2.581z" class="B"/><path d="M770.445 822.6h2.581V80.239h-2.581z" class="B"/><path d="M773.026 822.6h2.581V172.606h-2.581z" class="B"/><path d="M775.606 822.6h2.581V261.553h-2.581z" class="B"/><path d="M778.187 822.6h2.581V254.711h-2.581z" class="B"/><path d="M780.768 822.6h2.581V329.973h-2.581z" class="B"/><path d="M783.348 822.6h2.581V401.815h-2.581z" class="B"/><path d="M785.929 822.6h2.581V398.394h-2.581z" class="B"/><path d="M788.509 822.6h2.581V480.498h-2.581z" class="B"/><path d="M791.09 822.6h2.581V490.761h-2.581z" class="B"/><path d="M793.671 822.6h2.581V548.918h-2.581z" class="B"/><path d="M796.251 822.6h2.581V610.497h-2.581z" class="B"/><path d="M798.832 822.6h2.581V593.392h-2.581z" class="B"/><path d="M801.412 822.6h2.581V593.392h-2.581z" class="B"/><path d="M803.993 822.6h2.581V654.97h-2.581z" class="B"/><path d="M806.574 822.6h2.581V678.917h-2.581z" class="B"/><path d="M809.154 822.6h2.581V665.233h-2.581z" class="B"/><path d="M811.735 822.6h2.581V713.127h-2.581z" class="B"/><path d="M814.316 822.6h2.581V678.917h-2.581z" class="B"/><path d="M816.896 822.6h2.581v-68.42h-2.581z" class="B"/><path d="M819.477 822.6h2.581V709.706h-2.581z" class="B"/><path d="M822.057 822.6h2.581v-64.999h-2.581z" class="B"/><path d="M824.638 822.6h2.581v-47.894h-2.581z" class="B"/><path d="M827.219 822.6h2.581v-51.315h-2.581z" class="B"/><path d="M829.799 822.6h2.581v-30.789h-2.581z" class="B"/><path d="M832.38 822.6h2.581v-27.368h-2.581z" class="B"/><path d="M834.961 822.6h2.581v-51.315h-2.581z" class="B"/><path d="M837.541 822.6h2.581v-34.21h-2.581z" class="B"/><path d="M840.122 822.6h2.581v-27.368h-2.581z" class="B"/><path d="M842.702 822.6h2.581v-41.052h-2.581z" class="B"/><path d="M845.283 822.6h2.581v-30.789h-2.581z" class="B"/><path d="M847.864 822.6h2.581v-20.526h-2.581z" class="B"/><path d="M850.444 822.6h2.581v-20.526h-2.581z" class="B"/><path d="M853.025 822.6h2.581v-6.842h-2.581z" class="B"/><path d="M855.606 822.6h2.581v-3.421h-2.581z" class="B"/><path d="M858.186 822.6h2.581v-27.368h-2.581z" class="B"/><path d="M860.767 822.6h2.581v-17.105h-2.581z" class="B"/><path d="M863.347 822.6h2.581v-10.263h-2.581z" class="B"/><path d="M865.928 822.6h2.581v-10.263h-2.581z" class="B"/><path d="M868.509 822.6h2.581v-3.421h-2.581z" class="B"/><path d="M871.089 822.6h2.581v-3.421h-2.581z" class="B"/><path d="M873.67 822.6h2.581v-17.105h-2.581z" class="B"/><path d="M876.25 822.6h2.581v-10.263h-2.581z" class="B"/><path d="M878.831 822.6h2.581v-3.421h-2.581z" class="B"/><path d="M881.412 822.6h2.581v-6.842h-2.581z" class="B"/><path d="M883.992 822.6h2.581v-3.421h-2.581z" class="B"/><path d="M886.573 822.6h2.581v-3.421h-2.581z" class="B"/><path d="M889.154 822.6h2.581v-6.842h-2.581z" class="B"/><path d="M891.734 822.6h2.581v-3.421h-2.581z" class="B"/><path d="M894.315 822.6h2.581v-10.263h-2.581z" class="B"/><path d="M896.895 822.6h2.581v-3.421h-2.581z" class="B"/><path d="M899.476 822.6h2.581v-6.842h-2.581z" class="B"/><path d="M902.057 822.6h2.581v-3.421h-2.581z" class="B"/><path d="M904.637 822.6h2.581v-13.684h-2.581z" class="B"/><path d="M907.218 822.6h2.581 0-2.581z" class="B"/><path d="M909.799 822.6h2.581 0-2.581z" class="B"/><path d="M912.379 822.6h2.581v-6.842h-2.581z" class="B"/><path d="M914.96 822.6h2.581 0-2.581z" class="B"/><path d="M917.54 822.6h2.581v-6.842h-2.581z" class="B"/><path d="M920.121 822.6h2.581 0-2.581z" class="B"/><path d="M922.702 822.6h2.581v-6.842h-2.581z" class="B"/><path d="M925.282 822.6h2.581 0-2.581z" class="B"/><path d="M927.863 822.6h2.581v-3.421h-2.581z" class="B"/><path d="M930.444 822.6h2.581 0-2.581z" class="B"/><path d="M933.024 822.6h2.581 0-2.581z" class="B"/><path d="M935.605 822.6h2.581 0-2.581z" class="B"/><path d="M938.185 822.6h2.581v-3.421h-2.581z" class="B"/><path d="M940.766 822.6h2.581 0-2.581z" class="B"/><path d="M943.347 822.6h2.581 0-2.581z" class="B"/><path d="M945.927 822.6h2.581 0-2.581z" class="B"/><path d="M948.508 822.6h2.581 0-2.581z" class="B"/><path d="M951.088 822.6h2.581 0-2.581z" class="B"/><path d="M953.669 822.6h2.581 0-2.581z" class="B"/><path d="M956.25 822.6h2.581v-3.421h-2.581z" class="B"/><path d="M958.83 822.6h2.581 0-2.581z" class="B"/><path d="M961.411 822.6h2.581v-3.421h-2.581z" class="B"/><path d="M963.992 822.6h2.581v-3.421h-2.581z" class="B"/><path d="M966.572 822.6h2.581v-3.421h-2.581z" class="B"/><path d="M969.153 822.6h2.581v-3.421h-2.581z" class="B"/><path d="M971.733 822.6h2.581 0-2.581z" class="B"/><path d="M974.314 822.6h2.581 0-2.581z" class="B"/><path d="M976.895 822.6h2.581 0-2.581z" class="B"/><path d="M979.475 822.6h2.581 0-2.581z" class="B"/><path d="M982.056 822.6h2.581 0-2.581z" class="B"/><path d="M984.637 822.6h2.581v-3.421h-2.581z" class="B"/><path d="M987.217 822.6h2.581v-6.842h-2.581z" class="B"/><path d="M989.798 822.6h2.581 0-2.581z" class="B"/><path d="M992.378 822.6h2.581 0-2.581z" class="B"/><path d="M994.959 822.6h2.581 0-2.581z" class="B"/><path d="M997.54 822.6h2.581 0-2.581z" class="B"/><path d="M1000.12 822.6h2.581 0-2.581z" class="B"/><path d="M1002.701 822.6h2.581 0-2.581z" class="B"/><path d="M1005.282 822.6h2.581 0-2.581z" class="B"/><path d="M1007.862 822.6h2.581 0-2.581z" class="B"/><path d="M1010.443 822.6h2.581 0-2.581z" class="B"/><path d="M1013.023 822.6h2.581 0-2.581z" class="B"/><path d="M1015.604 822.6h2.581 0-2.581z" class="B"/><path d="M1018.185 822.6h2.581 0-2.581z" class="B"/><path d="M1020.765 822.6h2.581 0-2.581z" class="B"/><path d="M1023.346 822.6h2.581 0-2.581z" class="B"/><path d="M1025.927 822.6h2.581 0-2.581z" class="B"/><path d="M1028.507 822.6h2.581 0-2.581z" class="B"/><path d="M1031.088 822.6h2.581 0-2.581z" class="B"/><path d="M1033.668 822.6h2.581 0-2.581z" class="B"/><path d="M1036.249 822.6h2.581 0-2.581z" class="B"/><path d="M1038.83 822.6h2.581 0-2.581z" class="B"/><path d="M1041.41 822.6h2.581 0-2.581z" class="B"/><path d="M1043.991 822.6h2.581 0-2.581z" class="B"/><path d="M1046.571 822.6h2.581 0-2.581z" class="B"/><path d="M1049.152 822.6h2.581 0-2.581z" class="B"/><path d="M1051.733 822.6h2.581 0-2.581z" class="B"/><path d="M1054.313 822.6h2.581v-3.421h-2.581z" class="B"/><path d="M1056.894 822.6h2.581v-3.421h-2.581z" class="B"/><path d="M1059.475 822.6h2.581 0-2.581z" class="B"/><path d="M1062.055 822.6h2.581 0-2.581z" class="B"/><path d="M1064.636 822.6h2.581 0-2.581z" class="B"/><path d="M1067.216 822.6h2.581 0-2.581z" class="B"/><path d="M1069.797 822.6h2.581 0-2.581z" class="B"/><path d="M1072.378 822.6h2.581 0-2.581z" class="B"/><path d="M1074.958 822.6h2.581 0-2.581z" class="B"/><path d="M1077.539 822.6h2.581 0-2.581z" class="B"/><path d="M1080.12 822.6h2.581 0-2.581z" class="B"/><path d="M1082.7 822.6h2.581 0-2.581z" class="B"/><path d="M1085.281 822.6h2.581 0-2.581z" class="B"/><path d="M1087.861 822.6h2.581 0-2.581z" class="B"/><path d="M1090.442 822.6h2.581 0-2.581z" class="B"/><path d="M1093.023 822.6h2.581 0-2.581z" class="B"/><path d="M1095.603 822.6h2.581 0-2.581z" class="B"/><path d="M1098.184 822.6h2.581 0-2.581z" class="B"/><path d="M1100.765 822.6h2.581v-3.421h-2.581z" class="B"/><path d="M1103.345 822.6h2.581 0-2.581z" class="B"/><path d="M1105.926 822.6h2.581 0-2.581z" class="B"/><path d="M1108.506 822.6h2.581 0-2.581z" class="B"/><path d="M1111.087 822.6h2.581 0-2.581z" class="B"/><path d="M1113.668 822.6h2.581 0-2.581z" class="B"/><path d="M1116.248 822.6h2.581 0-2.581z" class="B"/><path d="M1118.829 822.6h2.581 0-2.581z" class="B"/><path d="M1121.409 822.6h2.581v-3.421h-2.581z" class="B"/></g><g class="C"><g class="E G"><path d="M609.262 822.6l29.078-.089 12.924-.347 6.462-.563 4.846-.784 3.231-.839 3.231-.966 1.615-.653 4.846-2.528 1.615-1.038 1.615-1.312 3.231-3.267 1.615-1.771 1.615-2.007 1.615-2.35 3.231-5.481 1.615-3.031 1.615-3.45 1.615-4.066 3.231-9.359 1.615-5.172 1.615-6.031 3.231-13.866 1.615-7.946 6.462-34.796 1.615-11.022 3.231-23.948 3.231-22.803 1.615-13.412 4.846-43.889 3.231-31.554 4.846-50.19 3.231-31.237 6.462-59.818 3.231-30.602 1.615-12.551 3.231-19.689 1.615-9.826 1.615-8.983 1.615-7.653 1.615-6.603 1.615-5.267 1.615-3.446 1.615-1.389 1.615.494 1.615 1.688 1.615 2.749 4.846 12.335 1.615 5.533 1.615 8.048 4.846 28.586 1.615 11.18 1.615 13.1 3.231 29.633 1.615 15.271 3.231 33.794 3.231 32.919 6.462 60.427 3.231 30.453 9.693 82.63 1.615 11.331 1.615 10.123 4.846 27.517 1.615 8.38 1.615 7.465 3.231 13.249 3.231 12.126 1.615 5.146 1.615 4.389 3.231 7.61 1.615 3.35 3.231 5.864 1.615 2.718 1.615 2.411 1.615 2.021 1.615 1.688 3.231 2.565 3.231 2.489 1.615 1.052 1.615.826 3.231 1.245 1.615.467 8.077 1.606 3.231.344 8.077.494 19.386.254 25.847.023" stroke="green" class="B"/><path d="M107.458 822.6l191.183-.085 12.746-.024 44.609-.094 12.746.049 6.373-.103 12.746.033 25.491-.181 19.118-.085 19.118-.298 12.746-.001 19.118-.285 12.746.035 19.118-.502 6.373-.146 12.746-.479 6.373-.26 12.746-.899 12.746-.891 6.373-.889 6.373-.631 6.373-.959 6.373-.802 6.373-1.337 6.373-.964 6.373-1.334 12.746-4.454 6.373-1.48 6.373-3.104 6.373-1.885 6.373-2.318 6.373-3.422 6.373-2.521 6.373-2.839 6.373-3.048 6.373-2.58 6.373-2.307 6.373-2.055 6.373-3.332 6.373-2.928 6.373-5.925 6.373-12.539 6.373-26.879 6.373-53.867 6.373-94.119 6.373-137.583 6.373-159.526 6.373-145.457 6.373-70.928 6.373 31.873 6.373 115.114 6.373 159.961 6.373 155.17 6.373 119.366 6.373 76.589 6.373 41.26 6.373 19.83 6.373 8.629 6.373 5.198 12.746 6.511 6.373 1.835 6.373 1.707 6.373 2.122 6.373 1.819 6.373 1.327 6.373.984 6.373 1.188 6.373.989 12.746 1.553 6.373.242 12.746 1.065 6.373.039 6.373.485 50.982.939 108.337.404 44.609-.015 25.491.02 210.302.029" stroke="#ff8c00" class="B"/></g><g stroke-linecap="square" stroke-width="1.25" class="D"><path d="M44.049 822.6V7.2m1395 815.4V7.2m-1395 815.4h1395"/><path d="M44.049 7.2h1395"/></g></g><path d="M1327.378 63.424h103.971q2.2 0 2.2-2.2V14.9q0-2.2-2.2-2.2h-103.971q-2.2 0-2.2 2.2v46.324q0 2.2 2.2 2.2z" fill="#edf9fe" opacity=".8" stroke="#ccc"/><path d="M1329.578 21.124h22" stroke="green" class="C E G"/><g transform="matrix(.11 0 0 -.11 1360.378438 24.973594)" class="F"><defs><path d="M7.328 0v71.578h26.859q8.203 0 13.156-2.172 4.953-2.172 7.75-6.687 2.813-4.516 2.813-9.453 0-4.578-2.484-8.641-2.484-4.047-7.516-6.531 6.484-1.906 9.969-6.5 3.5-4.594 3.5-10.844 0-5.031-2.125-9.359Q57.125 7.078 54 4.734q-3.125-2.344-7.844-3.547Q41.453 0 34.625 0zm9.469 41.5h15.484q6.297 0 9.031.828 3.609 1.078 5.438 3.563 1.828 2.5 1.828 6.266 0 3.563-1.703 6.266-1.703 2.719-4.891 3.719-3.172 1-10.875 1H16.797zm0-33.047h17.828q4.578 0 6.438.344 3.281.578 5.469 1.938 2.203 1.375 3.609 3.984 1.422 2.609 1.422 6.031 0 4-2.047 6.953-2.047 2.969-5.687 4.156-3.641 1.203-10.484 1.203H16.797z" id="Q"/><path d="M4.5 23l8.922.781q.641-5.375 2.953-8.812 2.328-3.437 7.203-5.562 4.891-2.125 11-2.125 5.406 0 9.563 1.609 4.156 1.609 6.172 4.406 2.031 2.813 2.031 6.141 0 3.359-1.953 5.875-1.953 2.516-6.437 4.234-2.891 1.125-12.75 3.484-9.859 2.375-13.812 4.469-5.141 2.688-7.656 6.656-2.5 3.984-2.5 8.922 0 5.422 3.063 10.125 3.078 4.719 8.984 7.156 5.922 2.438 13.141 2.438 7.953 0 14.031-2.562 6.094-2.562 9.359-7.547 3.266-4.969 3.516-11.266l-9.078-.687q-.734 6.781-4.969 10.25-4.219 3.469-12.469 3.469-8.594 0-12.531-3.156-3.922-3.141-3.922-7.578 0-3.859 2.781-6.359 2.734-2.484 14.281-5.094 11.547-2.609 15.844-4.562 6.25-2.891 9.219-7.312 2.984-4.406 2.984-10.172 0-5.719-3.266-10.781-3.266-5.047-9.406-7.859-6.125-2.797-13.781-2.797-9.719 0-16.297 2.828-6.562 2.828-10.297 8.516Q4.688 15.828 4.5 23z" id="R"/><path d="M7.422 0v71.578h14.266l16.938-50.672q2.344-7.094 3.422-10.609 1.219 3.906 3.797 11.484l17.141 49.797h12.75V0h-9.125v59.906L45.797 0H37.25L16.547 60.938V0z" id="S"/></defs><use xlink:href="#Q"/><use x="66.699" xlink:href="#R"/><use x="133.398" xlink:href="#S"/></g><path d="M1329.578 36.818h22" stroke="#ff8c00" class="C E G"/><g transform="matrix(.11 0 0 -.11 1360.378438 40.6675)" class="F"><defs><path d="M25.047 11.578v19.625H5.563v8.203h19.484v19.484h8.297V39.406h19.484v-8.203H33.344V11.578z" id="T"/><path d="M2.875 20.313l8.547 1.172q.344-8.203 3.078-11.234 2.734-3.016 7.578-3.016 3.563 0 6.141 1.625 2.594 1.641 3.563 4.438.984 2.813.984 8.969v49.313h9.469V22.797q0-8.984-2.172-13.922-2.172-4.922-6.891-7.516-4.703-2.578-11.047-2.578-9.422 0-14.437 5.422-5 5.422-4.812 16.109z" id="U"/><path d="M40.578 0v7.625q-6.062-8.797-16.453-8.797-4.594 0-8.578 1.75Q11.578 2.344 9.641 5q-1.922 2.672-2.703 6.531-.547 2.578-.547 8.203v32.125h8.797V23.094q0-6.875.531-9.281.828-3.453 3.516-5.437 2.688-1.984 6.641-1.984 3.953 0 7.422 2.031 3.469 2.031 4.906 5.516 1.453 3.5 1.453 10.141v27.781h8.781V0z" id="V"/><path d="M6.594 0v51.859h7.859v-7.281q2.438 3.813 6.484 6.125 4.063 2.328 9.234 2.328 5.766 0 9.453-2.391 3.688-2.391 5.203-6.687 6.156 9.078 16.016 9.078 7.719 0 11.859-4.281 4.156-4.266 4.156-13.156V0h-8.75v32.672q0 5.266-.859 7.578-.844 2.328-3.094 3.734-2.234 1.422-5.266 1.422-5.469 0-9.094-3.641-3.609-3.625-3.609-11.641V0h-8.781v33.688q0 5.859-2.156 8.781-2.141 2.938-7.031 2.938-3.703 0-6.859-1.953-3.141-1.953-4.562-5.719-1.422-3.75-1.422-10.828V0z" id="W"/><path d="M6.594-19.875v71.734h8v-6.734q2.844 3.953 6.406 5.922 3.563 1.984 8.641 1.984 6.641 0 11.719-3.422 5.078-3.422 7.656-9.656 2.594-6.219 2.594-13.641 0-7.953-2.859-14.328-2.844-6.375-8.297-9.766Q35.016-1.172 29-1.172q-4.391 0-7.891 1.859-3.484 1.859-5.734 4.688v-25.25zm7.953 45.516q0-10.016 4.047-14.797 4.063-4.781 9.828-4.781 5.859 0 10.031 4.953 4.172 4.953 4.172 15.359 0 9.906-4.078 14.828-4.078 4.938-9.734 4.938-5.625 0-9.953-5.25-4.312-5.25-4.312-15.25z" id="X"/></defs><use xlink:href="#Q"/><use x="66.699" xlink:href="#R"/><use x="133.398" xlink:href="#S"/><use x="216.699" xlink:href="#GY"/><use x="244.482" xlink:href="#T"/><use x="302.881" xlink:href="#GY"/><use x="330.664" xlink:href="#U"/><use x="380.664" xlink:href="#V"/><use x="436.279" xlink:href="#W"/><use x="519.58" xlink:href="#X"/><use x="575.195" xlink:href="#M"/></g><path d="M1329.578 56.714h22v-7.7h-22z" fill="#00f" class="D"/><g transform="matrix(.11 0 0 -.11 1360.378438 56.71375)" class="F"><defs><path d="M34.188 63.188L14.156 8.203H54.25zM.781 0l27.828 72.906h11.188L67.578 0z" id="Y"/><path d="M9.422 75.984h8.984V0H9.422z" id="Z"/><path d="M30.609 48.391q-7.219 0-11.422-5.641-4.203-5.641-4.203-15.453 0-9.812 4.172-15.453 4.188-5.641 11.453-5.641 7.188 0 11.375 5.656 4.203 5.672 4.203 15.438 0 9.719-4.203 15.406-4.187 5.688-11.375 5.688zm0 7.609q11.719 0 18.406-7.625 6.703-7.609 6.703-21.078 0-13.422-6.703-21.078-6.687-7.641-18.406-7.641-11.766 0-18.437 7.641-6.656 7.656-6.656 21.078 0 13.469 6.656 21.078Q18.844 56 30.609 56z" id="a"/><path d="M45.406 27.984q0 9.766-4.031 15.125-4.016 5.375-11.297 5.375-7.219 0-11.25-5.375-4.031-5.359-4.031-15.125 0-9.719 4.031-15.094 4.031-5.375 11.25-5.375 7.281 0 11.297 5.375 4.031 5.375 4.031 15.094zm8.984-21.203q0-13.953-6.203-20.766Q42-20.797 29.203-20.797q-4.734 0-8.937.703-4.203.703-8.156 2.172v8.734q3.953-2.141 7.813-3.156 3.859-1.031 7.859-1.031 8.844 0 13.234 4.609 4.391 4.609 4.391 13.938v4.453q-2.781-4.844-7.125-7.234Q33.938 0 27.875 0 17.828 0 11.672 7.656q-6.156 7.672-6.156 20.328 0 12.688 6.156 20.344Q17.828 56 27.875 56q6.063 0 10.406-2.391 4.344-2.391 7.125-7.219v8.297h8.984z" id="b"/><path d="M31 75.875q-6.531-11.219-9.719-22.219-3.172-10.984-3.172-22.266 0-11.266 3.203-22.328Q24.516-2 31-13.187h-7.812Q15.875-1.703 12.234 9.375 8.594 20.453 8.594 31.391q0 10.891 3.609 21.922 3.625 11.047 10.984 22.563z" id="c"/><path d="M60.297 70.516l-1.891-9.625q-4.937 2.641-9.797 3.984-4.859 1.344-9.406 1.344-8.828 0-14.062-3.859-5.219-3.859-5.219-10.266 0-3.516 1.922-5.391 1.938-1.875 9.938-4.031l5.922-1.453q10-2.594 13.906-6.578 3.906-3.969 3.906-11.156 0-11.031-8.672-17.969-8.656-6.937-22.812-6.937-5.812 0-11.672 1.156Q6.5.875.594 3.219l2 10.156q5.422-3.359 10.859-5.078 5.438-1.703 10.859-1.703 9.234 0 14.797 4.094 5.563 4.109 5.563 10.703 0 4.391-2.219 6.656-2.219 2.281-9.547 4.125L27 33.688q-10.109 2.641-13.797 6.078-3.687 3.453-3.687 9.656 0 10.875 8.375 17.828 8.375 6.969 21.813 6.969 5.219 0 10.344-.937 5.125-.922 10.25-2.766z" id="d"/><path d="M42.281 54.688l-1.359-6.984H23l-5.812-29.687q-.297-1.656-.437-2.781-.141-1.125-.141-1.75 0-3.125 1.875-4.547 1.875-1.422 6.031-1.422h9.078L32.078 0h-8.594q-8 0-11.937 3.125-3.922 3.125-3.922 9.469 0 1.125.141 2.469.141 1.344.438 2.953l5.813 29.688H6.391l1.422 6.984h7.469l3.031 15.531h8.984l-2.984-15.531z" id="e"/><path d="M8.016 75.875h7.813q7.313-11.516 10.953-22.562 3.641-11.031 3.641-21.922 0-10.937-3.641-22.016-3.641-11.078-10.953-22.562H8.016Q14.5-2 17.703 9.063q3.203 11.063 3.203 22.328 0 11.281-3.203 22.266-3.203 11-9.687 22.219z" id="f"/></defs><use xlink:href="#Y" y=".016"/><use xlink:href="#Z" x="68.408" y=".016"/><use xlink:href="#a" x="96.191" y=".016"/><use xlink:href="#b" x="157.373" y=".016"/><use xlink:href="#c" x="220.85" y=".016"/><use xlink:href="#d" x="259.863" y=".016"/><use transform="matrix(.7 0 0 .7 323.339844 -16.390625)" xlink:href="#e"/><use xlink:href="#f" x="353.521" y=".016"/></g><defs><clipPath id="g"><path d="M44.049 7.2h1395v815.4h-1395z"/></clipPath></defs></svg>